<svg xmlns="http://www.w3.org/2000/svg" viewBox="0 0 64 64" role="img" aria-label="שלוש חוליות משפחתיות ולב">
  <rect width="64" height="64" rx="16" fill="#E4EAD9"/>
  <g fill="none" stroke-linecap="round" stroke-width="7">
    <path d="M25 19h-6a9 9 0 0 0 0 18h8" stroke="#56705A"/>
    <path d="M39 37h6a9 9 0 0 0 0-18h-8" stroke="#8EA184"/>
    <path d="M25 28h14a8 8 0 0 1 0 16H25a8 8 0 0 1 0-16Z" stroke="#B7C4A7"/>
  </g>
  <path d="M32 49 25.5 43c-3.4-3.2 1.3-7.7 4.3-4.7l2.2 2.2 2.2-2.2c3-3 7.7 1.5 4.3 4.7Z" fill="#D58E76"/>
</svg>
