<svg xmlns="http://www.w3.org/2000/svg" width="1200" height="630" viewBox="0 0 1200 630" role="img" aria-labelledby="title desc">
  <title id="title">שגרת ערב רגועה לילד לפני השינה</title>
  <desc id="desc">איור של חדר שינה רגוע בערב, ילד במיטה, מנורת לילה ושעון.</desc>
  <rect width="1200" height="630" fill="#17324d"/>
  <circle cx="1010" cy="115" r="62" fill="#f4e7b3"/>
  <circle cx="1038" cy="92" r="62" fill="#17324d"/>
  <rect x="0" y="430" width="1200" height="200" fill="#244a62"/>
  <rect x="135" y="305" width="690" height="170" rx="26" fill="#d9e7ec"/>
  <rect x="165" y="260" width="255" height="110" rx="50" fill="#eef5f7"/>
  <rect x="420" y="350" width="405" height="125" rx="20" fill="#8fb3c7"/>
  <circle cx="315" cy="327" r="46" fill="#d6a67a"/>
  <path d="M275 322c18-55 94-55 111 0-22-18-89-18-111 0z" fill="#4b342a"/>
  <rect x="890" y="305" width="155" height="170" rx="18" fill="#d5a96d"/>
  <rect x="930" y="235" width="75" height="82" rx="14" fill="#f2d88a"/>
  <rect x="953" y="170" width="28" height="70" rx="12" fill="#d5a96d"/>
  <circle cx="967" cy="166" r="54" fill="#f3e0a2"/>
  <rect x="102" y="190" width="170" height="80" rx="18" fill="#0e2438"/>
  <text x="187" y="244" text-anchor="middle" font-family="Arial, sans-serif" font-size="44" fill="#f4e7b3">20:30</text>
  <g fill="#d8edf5" opacity="0.55">
    <circle cx="730" cy="120" r="6"/><circle cx="785" cy="165" r="4"/><circle cx="850" cy="105" r="5"/><circle cx="650" cy="180" r="4"/>
  </g>
</svg>